<?xml version="1.0" encoding="UTF-8"?>
<svg xmlns="http://www.w3.org/2000/svg" width="598" height="598" viewBox="0 0 598 572" version="1.2">
  <path d="M 262.276 40.550 C 260.391 42.568, 263.572 44.857, 265.534 42.895 C 266.779 41.650, 266.737 41.317, 265.217 40.368 C 263.915 39.554, 263.162 39.601, 262.276 40.550 M 321.264 54.136 C 319.472 55.928, 322.476 58.569, 324.333 56.833 C 325.443 55.797, 325.459 55.316, 324.421 54.278 C 322.860 52.717, 322.690 52.710, 321.264 54.136 M 387.099 66.054 C 387.044 67.458, 385.820 70.976, 384.377 73.871 C 381.548 79.549, 376.688 83.512, 371.213 84.607 C 366.598 85.530, 366.417 86.650, 370.768 87.354 C 376.588 88.295, 381.851 92.483, 384.582 98.348 C 385.901 101.182, 387.026 104.625, 387.081 106 C 387.148 107.659, 387.782 106.593, 388.964 102.833 C 389.944 99.716, 391.706 95.817, 392.880 94.169 C 395.184 90.933, 402.281 87, 405.816 87 C 407.017 87, 408 86.550, 408 86 C 408 85.450, 407.078 85, 405.950 85 C 404.823 85, 402.461 84.272, 400.700 83.383 C 394.348 80.173, 391.161 76.051, 388.487 67.584 C 387.447 64.288, 387.179 63.993, 387.099 66.054 M 222.075 119.410 C 221.267 120.384, 221.310 121.008, 222.238 121.767 C 224.070 123.266, 226.158 120.871, 224.428 119.255 C 223.468 118.358, 222.918 118.394, 222.075 119.410 M 133.113 150.724 C 131.965 151.953, 131.967 152.389, 133.126 153.514 C 135.093 155.424, 137.256 153.071, 135.607 150.815 C 134.616 149.461, 134.304 149.449, 133.113 150.724 M 403.409 150.325 C 401.745 152.231, 404.488 154.557, 406.350 152.818 C 407.446 151.794, 407.459 151.316, 406.421 150.278 C 404.883 148.740, 404.792 148.742, 403.409 150.325 M 277 158.350 C 276.175 160.072, 273.971 162.498, 272.102 163.741 C 269.324 165.588, 269.080 166, 270.763 166 C 273.259 166, 277.955 171.319, 278.116 174.327 C 278.222 176.307, 278.276 176.326, 278.729 174.542 C 279.620 171.038, 282.340 167.761, 285.452 166.444 L 288.500 165.155 286 164.192 C 283.099 163.075, 280.447 160.361, 279.303 157.339 C 278.544 155.334, 278.418 155.390, 277 158.350 M 484.584 185.642 C 483.702 187.939, 485.385 189.446, 486.855 187.675 C 487.759 186.586, 487.708 186.002, 486.629 185.107 C 485.539 184.202, 485.091 184.319, 484.584 185.642 M 89 293 L 89 379 135.951 379 C 166.581 379, 184.744 378.613, 188.201 377.887 C 202.530 374.878, 215.776 365.316, 221.312 353.983 C 228.252 339.776, 228.745 320.431, 222.484 307.998 C 219.567 302.203, 210.326 293.474, 204.277 290.798 L 199.553 288.709 202.027 287.104 C 215.656 278.264, 222.837 261.574, 220.238 244.779 C 217.435 226.670, 204.807 213.478, 185.540 208.530 C 180.619 207.267, 171.685 207, 134.290 207 L 89 207 89 293 M 241 293 L 241 379 258.492 379 L 275.984 379 276.242 321.401 L 276.500 263.802 310.679 321.151 L 344.858 378.500 363.929 378.772 L 383 379.043 383 343.272 L 383 307.500 424 307.500 L 465 307.500 465 343.250 L 465 379 483.500 379 L 502 379 502 293 L 502 207 483.500 207 L 465 207 465 240 L 465 273 424 273 L 383 273 383 240 L 383 207 365 207 L 347 207 346.989 263.250 L 346.978 319.500 341.668 310.500 C 338.747 305.550, 326.086 284.175, 313.534 263 C 300.981 241.825, 288.413 220.573, 285.605 215.774 L 280.500 207.048 260.750 207.024 L 241 207 241 293 M 410.756 210.436 C 409.286 211.511, 409.293 211.702, 410.841 212.669 C 413.023 214.031, 415.330 212.032, 413.522 210.343 C 412.689 209.565, 411.912 209.591, 410.756 210.436 M 126 256.550 L 126 273.099 150.429 272.800 C 173.287 272.519, 175.036 272.367, 177.617 270.438 C 182.990 266.424, 184.500 263.365, 184.500 256.500 C 184.500 248.872, 182.547 245.606, 175.980 242.250 C 171.794 240.111, 170.449 240, 148.788 240 L 126 240 126 256.550 M 44.597 248.844 C 44.251 249.404, 44.455 250.163, 45.050 250.531 C 46.588 251.481, 47.580 250.180, 46.296 248.896 C 45.578 248.178, 45.019 248.161, 44.597 248.844 M 126 325.462 L 126 345.121 152.416 344.811 L 178.833 344.500 183.166 341.475 C 188.589 337.689, 190.996 333.029, 190.998 326.315 C 191 320.013, 189.729 316.405, 186.186 312.661 C 180.585 306.741, 179.749 306.583, 151.750 306.177 L 126 305.803 126 325.462 M 35.132 310.341 C 34.203 311.460, 34.270 311.890, 35.442 312.340 C 37.251 313.034, 38.605 311.205, 37.270 309.870 C 36.663 309.263, 35.884 309.435, 35.132 310.341 M 548.244 336.664 C 547.553 336.943, 547.242 337.582, 547.553 338.085 C 548.403 339.460, 549.714 339.187, 550.362 337.500 C 550.950 335.965, 550.459 335.771, 548.244 336.664 M 419.255 357.572 C 418.358 358.532, 418.394 359.082, 419.410 359.925 C 420.384 360.733, 421.008 360.690, 421.767 359.762 C 423.266 357.930, 420.871 355.842, 419.255 357.572 M 121.611 409.412 C 121.245 410.873, 119.834 412.574, 118.475 413.193 L 116.006 414.318 118.233 415.429 C 119.458 416.040, 120.942 417.505, 121.530 418.684 L 122.599 420.829 123.550 418.682 C 124.072 417.502, 125.562 416.011, 126.861 415.370 L 129.222 414.205 127.022 413.507 C 125.813 413.123, 124.251 411.447, 123.551 409.783 L 122.278 406.756 121.611 409.412 M 448.354 434.683 C 446.649 436.416, 446.500 436.978, 447.628 437.411 C 448.409 437.710, 449.375 438.793, 449.774 439.817 C 450.444 441.534, 450.657 441.478, 452.535 439.089 L 454.569 436.500 452.535 434.500 L 450.500 432.500 448.354 434.683 M 289.331 441.841 C 288.562 443.073, 288.621 443.857, 289.550 444.724 C 291.479 446.527, 293.240 444.048, 291.611 441.822 C 290.469 440.259, 290.318 440.261, 289.331 441.841 M 196.100 460.054 C 196.045 461.458, 194.809 464.997, 193.353 467.919 C 190.452 473.741, 184.342 478.470, 178.243 479.614 L 174.839 480.253 179.954 481.984 C 188.044 484.723, 193.038 490.261, 195.428 499.146 C 196.220 502.091, 196.898 503.568, 196.934 502.428 C 197.206 493.857, 204.611 484.049, 212.558 481.731 L 217.202 480.377 213.039 479.130 C 208.407 477.742, 201.640 472.139, 199.426 467.858 C 198.632 466.322, 197.581 463.363, 197.092 461.282 C 196.401 458.348, 196.178 458.073, 196.100 460.054" stroke="none" fill="#f9faf6" fill-rule="evenodd"></path>
  <path d="M 284 3.669 C 258.621 5.048, 233.565 9.749, 210.572 17.445 C 174.968 29.363, 145.900 45.509, 113.500 71.363 C 100.795 81.502, 73.818 108.519, 63.559 121.379 C 52.977 134.643, 38.642 156.112, 31.641 169.180 C 19.134 192.527, 8.469 225.062, 4.325 252.514 C 1.782 269.363, 1.814 310.589, 4.384 327 C 14.116 389.154, 43.594 439.138, 81.347 457.502 C 95.670 464.469, 103.834 466.296, 121 466.375 C 133.922 466.435, 139.025 465.819, 145.313 463.440 C 146.186 463.109, 146.524 466.231, 146.592 475.245 C 146.696 489.100, 148.233 496.287, 153.566 507.840 C 167.351 537.710, 199.230 559.671, 241.188 568.200 C 251.378 570.272, 255.179 570.496, 279.500 570.461 C 309.177 570.418, 319.226 569.248, 344.375 562.911 C 404.620 547.730, 461.850 514.270, 510.043 466.050 C 555.593 420.475, 583.676 371.291, 592.576 321.500 C 594.769 309.229, 595.551 280.997, 594.088 266.874 C 589.661 224.140, 574.004 188.535, 548.294 162.734 C 519.006 133.343, 481.156 123.197, 450 136.385 C 448.711 136.931, 448.485 135.081, 448.395 123.260 C 448.307 111.790, 447.849 107.840, 445.645 99.523 C 439.639 76.868, 424.478 53.613, 406 38.718 C 380.849 18.444, 349.522 6.884, 312 4.031 C 299.024 3.045, 296.166 3.008, 284 3.669 M 262.276 40.550 C 260.391 42.568, 263.572 44.857, 265.534 42.895 C 266.779 41.650, 266.737 41.317, 265.217 40.368 C 263.915 39.554, 263.162 39.601, 262.276 40.550 M 321.264 54.136 C 319.472 55.928, 322.476 58.569, 324.333 56.833 C 325.443 55.797, 325.459 55.316, 324.421 54.278 C 322.860 52.717, 322.690 52.710, 321.264 54.136 M 387.099 66.054 C 387.044 67.458, 385.820 70.976, 384.377 73.871 C 381.548 79.549, 376.688 83.512, 371.213 84.607 C 366.598 85.530, 366.417 86.650, 370.768 87.354 C 376.588 88.295, 381.851 92.483, 384.582 98.348 C 385.901 101.182, 387.026 104.625, 387.081 106 C 387.148 107.659, 387.782 106.593, 388.964 102.833 C 389.944 99.716, 391.706 95.817, 392.880 94.169 C 395.184 90.933, 402.281 87, 405.816 87 C 407.017 87, 408 86.550, 408 86 C 408 85.450, 407.078 85, 405.950 85 C 404.823 85, 402.461 84.272, 400.700 83.383 C 394.348 80.173, 391.161 76.051, 388.487 67.584 C 387.447 64.288, 387.179 63.993, 387.099 66.054 M 222.075 119.410 C 221.267 120.384, 221.310 121.008, 222.238 121.767 C 224.070 123.266, 226.158 120.871, 224.428 119.255 C 223.468 118.358, 222.918 118.394, 222.075 119.410 M 133.113 150.724 C 131.965 151.953, 131.967 152.389, 133.126 153.514 C 135.093 155.424, 137.256 153.071, 135.607 150.815 C 134.616 149.461, 134.304 149.449, 133.113 150.724 M 403.409 150.325 C 401.745 152.231, 404.488 154.557, 406.350 152.818 C 407.446 151.794, 407.459 151.316, 406.421 150.278 C 404.883 148.740, 404.792 148.742, 403.409 150.325 M 277 158.350 C 276.175 160.072, 273.971 162.498, 272.102 163.741 C 269.324 165.588, 269.080 166, 270.763 166 C 273.259 166, 277.955 171.319, 278.116 174.327 C 278.222 176.307, 278.276 176.326, 278.729 174.542 C 279.620 171.038, 282.340 167.761, 285.452 166.444 L 288.500 165.155 286 164.192 C 283.099 163.075, 280.447 160.361, 279.303 157.339 C 278.544 155.334, 278.418 155.390, 277 158.350 M 484.584 185.642 C 483.702 187.939, 485.385 189.446, 486.855 187.675 C 487.759 186.586, 487.708 186.002, 486.629 185.107 C 485.539 184.202, 485.091 184.319, 484.584 185.642 M 89 293 L 89 379 135.951 379 C 166.581 379, 184.744 378.613, 188.201 377.887 C 202.530 374.878, 215.776 365.316, 221.312 353.983 C 228.252 339.776, 228.745 320.431, 222.484 307.998 C 219.567 302.203, 210.326 293.474, 204.277 290.798 L 199.553 288.709 202.027 287.104 C 215.656 278.264, 222.837 261.574, 220.238 244.779 C 217.435 226.670, 204.807 213.478, 185.540 208.530 C 180.619 207.267, 171.685 207, 134.290 207 L 89 207 89 293 M 241 293 L 241 379 258.492 379 L 275.984 379 276.242 321.401 L 276.500 263.802 310.679 321.151 L 344.858 378.500 363.929 378.772 L 383 379.043 383 343.272 L 383 307.500 424 307.500 L 465 307.500 465 343.250 L 465 379 483.500 379 L 502 379 502 293 L 502 207 483.500 207 L 465 207 465 240 L 465 273 424 273 L 383 273 383 240 L 383 207 365 207 L 347 207 346.989 263.250 L 346.978 319.500 341.668 310.500 C 338.747 305.550, 326.086 284.175, 313.534 263 C 300.981 241.825, 288.413 220.573, 285.605 215.774 L 280.500 207.048 260.750 207.024 L 241 207 241 293 M 410.756 210.436 C 409.286 211.511, 409.293 211.702, 410.841 212.669 C 413.023 214.031, 415.330 212.032, 413.522 210.343 C 412.689 209.565, 411.912 209.591, 410.756 210.436 M 126 256.550 L 126 273.099 150.429 272.800 C 173.287 272.519, 175.036 272.367, 177.617 270.438 C 182.990 266.424, 184.500 263.365, 184.500 256.500 C 184.500 248.872, 182.547 245.606, 175.980 242.250 C 171.794 240.111, 170.449 240, 148.788 240 L 126 240 126 256.550 M 44.597 248.844 C 44.251 249.404, 44.455 250.163, 45.050 250.531 C 46.588 251.481, 47.580 250.180, 46.296 248.896 C 45.578 248.178, 45.019 248.161, 44.597 248.844 M 126 325.462 L 126 345.121 152.416 344.811 L 178.833 344.500 183.166 341.475 C 188.589 337.689, 190.996 333.029, 190.998 326.315 C 191 320.013, 189.729 316.405, 186.186 312.661 C 180.585 306.741, 179.749 306.583, 151.750 306.177 L 126 305.803 126 325.462 M 35.132 310.341 C 34.203 311.460, 34.270 311.890, 35.442 312.340 C 37.251 313.034, 38.605 311.205, 37.270 309.870 C 36.663 309.263, 35.884 309.435, 35.132 310.341 M 548.244 336.664 C 547.553 336.943, 547.242 337.582, 547.553 338.085 C 548.403 339.460, 549.714 339.187, 550.362 337.500 C 550.950 335.965, 550.459 335.771, 548.244 336.664 M 419.255 357.572 C 418.358 358.532, 418.394 359.082, 419.410 359.925 C 420.384 360.733, 421.008 360.690, 421.767 359.762 C 423.266 357.930, 420.871 355.842, 419.255 357.572 M 121.611 409.412 C 121.245 410.873, 119.834 412.574, 118.475 413.193 L 116.006 414.318 118.233 415.429 C 119.458 416.040, 120.942 417.505, 121.530 418.684 L 122.599 420.829 123.550 418.682 C 124.072 417.502, 125.562 416.011, 126.861 415.370 L 129.222 414.205 127.022 413.507 C 125.813 413.123, 124.251 411.447, 123.551 409.783 L 122.278 406.756 121.611 409.412 M 448.354 434.683 C 446.649 436.416, 446.500 436.978, 447.628 437.411 C 448.409 437.710, 449.375 438.793, 449.774 439.817 C 450.444 441.534, 450.657 441.478, 452.535 439.089 L 454.569 436.500 452.535 434.500 L 450.500 432.500 448.354 434.683 M 289.331 441.841 C 288.562 443.073, 288.621 443.857, 289.550 444.724 C 291.479 446.527, 293.240 444.048, 291.611 441.822 C 290.469 440.259, 290.318 440.261, 289.331 441.841 M 196.100 460.054 C 196.045 461.458, 194.809 464.997, 193.353 467.919 C 190.452 473.741, 184.342 478.470, 178.243 479.614 L 174.839 480.253 179.954 481.984 C 188.044 484.723, 193.038 490.261, 195.428 499.146 C 196.220 502.091, 196.898 503.568, 196.934 502.428 C 197.206 493.857, 204.611 484.049, 212.558 481.731 L 217.202 480.377 213.039 479.130 C 208.407 477.742, 201.640 472.139, 199.426 467.858 C 198.632 466.322, 197.581 463.363, 197.092 461.282 C 196.401 458.348, 196.178 458.073, 196.100 460.054" stroke="none" fill="#095eab" fill-rule="evenodd"></path>
  <title>Blue Nebula Hosting</title>
</svg>
